<svg fill="none" height="495" viewBox="0 0 946 495" width="946" xmlns="http://www.w3.org/2000/svg" xmlns:xlink="http://www.w3.org/1999/xlink"><clipPath id="clip0_6021_30"><path d="M0 0H945.86V495H0Z"/></clipPath><g clip-path="url(#clip0_6021_30)"><path d="M0 0H945.86V495H0Z" fill="#c3dcf4"/><circle cx="473.314" cy="247.314" fill="#f8f8f8" r="377.314"/><path d="M511.709 152.433C523.512 135.135 519.058 111.545 501.76 99.7418 484.463 87.9387 460.872 92.3927 449.069 109.69" stroke="#000000" stroke-linecap="round" stroke-width="25.7604"/><g clip-rule="evenodd" fill-rule="evenodd"><path d="M486.871 334.408C470.838 343.763 465.424 364.344 474.779 380.378 484.134 396.411 504.715 401.825 520.749 392.47 536.782 383.115 542.196 362.534 532.841 346.501 523.486 330.467 502.905 325.053 486.871 334.408ZM442.058 399.469C422.159 365.365 433.675 321.586 467.78 301.688 501.885 281.789 545.663 293.305 565.562 327.409 585.46 361.514 573.944 405.292 539.84 425.191 505.735 445.09 461.957 433.574 442.058 399.469Z" fill="#3d3d3d"/><path d="M554.783 341.262C553.249 341.932 551.47 341.227 550.714 339.733 550.24 338.799 549.736 337.872 549.201 336.955 548.666 336.038 548.107 335.143 547.527 334.271 546.599 332.878 546.86 330.982 548.198 329.976L573.63 310.85C574.968 309.844 576.872 310.11 577.833 311.481 579.276 313.539 580.64 315.667 581.922 317.864 583.203 320.06 584.385 322.295 585.466 324.564 586.187 326.074 585.481 327.863 583.947 328.533L554.783 341.262ZM538.076 323.576C539.345 324.667 541.258 324.641 542.421 323.438L564.533 300.553C565.696 299.349 565.666 297.427 564.424 296.305 560.605 292.855 556.53 289.769 552.255 287.061 550.841 286.165 548.981 286.652 548.133 288.095L532.013 315.532C531.165 316.975 531.653 318.825 533.045 319.755 534.788 320.92 536.469 322.194 538.076 323.576ZM520.21 313.511C521.801 314.032 523.557 313.274 524.169 311.717L535.806 282.099C536.419 280.541 535.653 278.777 534.076 278.217 529.299 276.522 524.387 275.23 519.395 274.355 517.746 274.067 516.212 275.226 515.979 276.883L511.536 308.393C511.302 310.051 512.458 311.575 514.1 311.903 516.167 312.317 518.207 312.853 520.21 313.511ZM499.854 311.024C501.523 310.899 502.858 309.529 502.83 307.855L502.297 276.038C502.269 274.364 500.889 273.025 499.218 273.109 494.163 273.364 489.097 274.045 484.075 275.169 482.442 275.534 481.47 277.193 481.89 278.813L489.879 309.616C490.299 311.236 491.952 312.2 493.594 311.874 495.672 311.462 497.763 311.18 499.854 311.024ZM480.104 316.535C481.597 315.779 482.302 314 481.633 312.466L468.903 283.301C468.234 281.767 466.445 281.062 464.934 281.782 462.666 282.864 460.43 284.046 458.234 285.327 456.038 286.609 453.909 287.973 451.851 289.416 450.481 290.376 450.215 292.281 451.221 293.619L470.347 319.051C471.353 320.389 473.248 320.65 474.641 319.722 475.514 319.141 476.408 318.583 477.325 318.048 478.242 317.513 479.169 317.009 480.104 316.535ZM463.946 329.173C465.037 327.904 465.012 325.99 463.808 324.827L440.923 302.716C439.72 301.553 437.797 301.583 436.675 302.825 433.226 306.644 430.14 310.719 427.431 314.994 426.535 316.408 427.022 318.268 428.466 319.116L455.902 335.236C457.345 336.084 459.195 335.596 460.125 334.204 461.29 332.46 462.565 330.78 463.946 329.173ZM453.881 347.039C454.403 345.448 453.645 343.691 452.087 343.079L422.469 331.442C420.912 330.83 419.147 331.595 418.588 333.173 416.893 337.95 415.601 342.861 414.726 347.854 414.437 349.503 415.596 351.037 417.254 351.27L448.764 355.713C450.421 355.947 451.945 354.79 452.274 353.149 452.687 351.082 453.224 349.041 453.881 347.039ZM451.394 367.395C451.269 365.726 449.899 364.391 448.226 364.419L416.408 364.952C414.735 364.98 413.395 366.36 413.48 368.031 413.734 373.086 414.415 378.152 415.539 383.174 415.904 384.807 417.564 385.779 419.184 385.359L449.986 377.37C451.607 376.95 452.57 375.297 452.245 373.655 451.833 371.577 451.55 369.486 451.394 367.395ZM452.837 385.616C454.371 384.947 456.149 385.652 456.905 387.145 457.379 388.08 457.883 389.006 458.418 389.923 458.953 390.841 459.512 391.735 460.093 392.608 461.02 394.001 460.759 395.896 459.422 396.902L433.989 416.028C432.651 417.034 430.747 416.768 429.786 415.398 428.344 413.34 426.979 411.211 425.698 409.015 424.416 406.818 423.235 404.583 422.153 402.315 421.432 400.804 422.138 399.015 423.672 398.346L452.837 385.616ZM469.543 403.303C468.274 402.212 466.361 402.237 465.198 403.441L443.086 426.325C441.923 427.529 441.953 429.452 443.195 430.574 447.014 434.023 451.09 437.109 455.364 439.818 456.778 440.713 458.638 440.226 459.486 438.783L475.606 411.347C476.454 409.904 475.966 408.054 474.574 407.124 472.831 405.959 471.15 404.684 469.543 403.303ZM487.409 413.368C485.819 412.846 484.062 413.604 483.45 415.162L471.813 444.779C471.201 446.337 471.966 448.101 473.543 448.661 478.32 450.356 483.232 451.648 488.224 452.523 489.873 452.812 491.407 451.653 491.641 449.995L496.084 418.485C496.317 416.828 495.161 415.304 493.52 414.975 491.453 414.562 489.412 414.025 487.409 413.368ZM507.765 415.855C506.096 415.98 504.761 417.35 504.789 419.023L505.322 450.841C505.35 452.514 506.73 453.853 508.402 453.769 513.456 453.515 518.522 452.833 523.544 451.71 525.178 451.344 526.15 449.685 525.729 448.065L517.741 417.262C517.32 415.642 515.667 414.679 514.026 415.004 511.947 415.416 509.857 415.699 507.765 415.855ZM527.515 410.343C526.022 411.1 525.317 412.878 525.987 414.412L538.716 443.577C539.386 445.111 541.175 445.817 542.685 445.096 544.954 444.014 547.189 442.833 549.385 441.551 551.582 440.27 553.71 438.905 555.768 437.463 557.139 436.502 557.405 434.598 556.399 433.26L537.273 407.827C536.267 406.49 534.371 406.228 532.978 407.156 532.106 407.737 531.211 408.296 530.294 408.831 529.377 409.366 528.45 409.87 527.515 410.343ZM543.673 397.706C542.582 398.975 542.608 400.888 543.811 402.051L566.696 424.162C567.9 425.326 569.822 425.296 570.944 424.054 574.394 420.235 577.479 416.159 580.188 411.884 581.084 410.471 580.597 408.61 579.154 407.763L551.717 391.643C550.274 390.795 548.424 391.283 547.494 392.674 546.329 394.418 545.055 396.099 543.673 397.706ZM553.738 379.84C553.217 381.43 553.974 383.187 555.532 383.799L585.15 395.436C586.708 396.048 588.472 395.283 589.032 393.706 590.726 388.929 592.019 384.017 592.893 379.025 593.182 377.376 592.023 375.842 590.366 375.608L558.856 371.165C557.198 370.932 555.674 372.088 555.346 373.729 554.932 375.796 554.395 377.837 553.738 379.84ZM556.225 359.483C556.35 361.153 557.72 362.488 559.394 362.46L591.211 361.927C592.885 361.899 594.224 360.519 594.14 358.847 593.885 353.793 593.204 348.727 592.08 343.705 591.715 342.071 590.056 341.099 588.435 341.519L557.633 349.508C556.013 349.929 555.049 351.581 555.374 353.223 555.786 355.302 556.069 357.392 556.225 359.483Z" fill="#3d3d3d"/><path d="M326.407 372.54C321.732 375.268 320.153 381.27 322.881 385.946 325.609 390.621 331.61 392.2 336.286 389.472 340.961 386.744 342.54 380.742 339.812 376.067 337.084 371.391 331.082 369.813 326.407 372.54ZM299.617 399.519C289.392 381.995 295.309 359.501 312.833 349.276 330.357 339.052 352.852 344.969 363.076 362.493 373.301 380.017 367.383 402.511 349.86 412.736 332.336 422.96 309.841 417.043 299.617 399.519Z" fill="#000000"/><path d="M356.93 372.188C354.953 372.871 352.821 371.802 351.827 369.962 351.703 369.733 351.576 369.506 351.444 369.28 351.312 369.054 351.177 368.831 351.039 368.611 349.926 366.84 350.044 364.458 351.612 363.073L366.121 350.258C367.689 348.873 370.096 349.014 371.359 350.682 372.565 352.276 373.685 353.952 374.708 355.706 375.732 357.46 376.64 359.26 377.434 361.094 378.265 363.015 377.203 365.179 375.226 365.862L356.93 372.188ZM338.018 358.715C340.022 359.314 342.285 358.563 343.201 356.682L351.667 339.274C352.582 337.392 351.803 335.111 349.858 334.34 346.107 332.853 342.19 331.823 338.193 331.271 336.121 330.985 334.32 332.588 334.191 334.676L332.996 353.997C332.867 356.086 334.467 357.853 336.507 358.317 337.015 358.433 337.519 358.565 338.018 358.715ZM320.302 360.526C322.143 359.532 323.211 357.4 322.528 355.422L316.203 337.127C315.519 335.15 313.355 334.088 311.435 334.918 309.6 335.712 307.8 336.621 306.046 337.645 304.292 338.668 302.616 339.787 301.022 340.994 299.354 342.257 299.213 344.663 300.598 346.231L313.413 360.74C314.798 362.308 317.18 362.427 318.952 361.314 319.171 361.175 319.394 361.04 319.62 360.909 319.846 360.777 320.073 360.649 320.302 360.526ZM309.055 374.335C309.654 372.33 308.903 370.067 307.022 369.152L289.614 360.686C287.732 359.771 285.451 360.55 284.68 362.495 283.194 366.245 282.163 370.163 281.612 374.159 281.326 376.232 282.928 378.033 285.017 378.162L304.337 379.357C306.426 379.486 308.193 377.885 308.657 375.845 308.773 375.338 308.906 374.834 309.055 374.335ZM310.866 392.051C309.872 390.21 307.74 389.141 305.762 389.825L287.467 396.15C285.49 396.834 284.428 398.998 285.259 400.918 286.053 402.753 286.961 404.552 287.985 406.306 289.008 408.06 290.127 409.737 291.334 411.331 292.597 412.999 295.003 413.139 296.572 411.754L311.08 398.94C312.649 397.554 312.767 395.172 311.654 393.401 311.516 393.181 311.381 392.958 311.249 392.733 311.117 392.507 310.989 392.279 310.866 392.051ZM324.675 403.298C322.671 402.699 320.407 403.449 319.492 405.331L311.026 422.739C310.111 424.62 310.89 426.902 312.835 427.673 316.585 429.159 320.503 430.19 324.499 430.741 326.572 431.027 328.373 429.424 328.502 427.336L329.697 408.015C329.826 405.927 328.225 404.16 326.185 403.695 325.678 403.58 325.174 403.447 324.675 403.298ZM342.391 401.487C340.55 402.481 339.481 404.613 340.165 406.59L346.49 424.886C347.174 426.863 349.338 427.925 351.258 427.094 353.093 426.3 354.893 425.391 356.646 424.368 358.4 423.345 360.077 422.225 361.671 421.019 363.339 419.756 363.48 417.349 362.095 415.781L349.28 401.272C347.895 399.704 345.513 399.586 343.741 400.699 343.521 400.837 343.299 400.972 343.073 401.104 342.847 401.236 342.62 401.363 342.391 401.487ZM353.638 387.678C353.039 389.682 353.789 391.945 355.671 392.86L373.079 401.327C374.961 402.242 377.242 401.463 378.013 399.518 379.499 395.767 380.53 391.85 381.081 387.853 381.367 385.781 379.765 383.98 377.676 383.851L358.355 382.656C356.267 382.526 354.5 384.127 354.035 386.167 353.92 386.675 353.787 387.179 353.638 387.678Z" fill="#000000"/></g><path d="M243.744 395.072C243.744 390.887 247.136 387.495 251.321 387.495H683.186C687.371 387.495 690.763 390.887 690.763 395.072V585.244C690.763 589.429 687.371 592.821 683.186 592.821H251.321C247.136 592.821 243.744 589.429 243.744 585.244V395.072Z" fill="#0ead69"/><path d="M244.414 277.274C262.464 167.502 366.085 93.146 475.857 111.196L519.894 118.437C629.666 136.487 704.022 240.108 685.972 349.88 685.601 352.132 683.475 353.658 681.223 353.288L247.821 282.022C245.569 281.652 244.044 279.526 244.414 277.274Z" fill="#0ead69"/><path d="M559.438 306.778C567.933 308.175 575.953 302.42 577.35 293.925 578.747 285.429 572.993 277.409 564.497 276.012 556.001 274.615 547.981 280.37 546.584 288.865 545.187 297.361 550.942 305.381 559.438 306.778Z" fill="#000000"/><path d="M384.605 278.03C393.101 279.428 401.12 273.673 402.517 265.177 403.914 256.681 398.16 248.661 389.664 247.264 381.168 245.867 373.148 251.622 371.751 260.118 370.354 268.614 376.109 276.633 384.605 278.03Z" fill="#000000"/><rect fill="#0ead69" height="95.954" rx="15.2847" transform="matrix(.83872855 -.54454974 .54454974 .83872855 11.784749 195.512223)" width="30.5694" x="335.976" y="77.8599"/><rect fill="#0ead69" height="95.954" rx="15.2847" transform="matrix(.78230385 .62289702 -.62289702 .78230385 196.589958 -372.542163)" width="30.5694" x="631.275" y="94.9817"/><path d="M0 0H88.7901V283.67H0Z" fill="#000000" transform="matrix(-.391282 -.920271 -.920271 .391282 1103.58 -56.4846)"/><path d="M737.151 200.989 622.863 129.286C607.071 119.379 601.247 99.1867 609.336 82.3912 617.971 64.4634 639.345 56.7164 657.462 64.9481L780.295 120.762C804.854 131.921 814.431 161.829 800.924 185.179 787.978 207.556 759.05 214.728 737.151 200.989Z" fill="#000000"/><path d="M589.781 99.2568 513.217 111.221C502.62 112.877 492.474 106.296 489.665 95.9451 486.674 84.9208 493.026 73.5238 503.976 70.2696L578.257 48.1937C593.132 43.773 608.572 53.1604 611.494 68.4007 614.288 82.9764 604.444 96.9654 589.781 99.2568Z" fill="#000000"/><path d="M896.262 40.168 803.488 188.359C790.641 208.881 764.408 216.446 742.606 205.918 719.402 194.713 709.373 167.044 720.009 143.574L792.173-15.6747C806.63-47.5794 845.478-60.0209 875.781-42.4511 904.743-25.6584 914.027 11.7916 896.262 40.168Z" fill="#3d3d3d"/><circle cx="43.6023" cy="43.6023" fill="#3d3d3d" r="43.6023" transform="matrix(-.391282 -.920271 -.920271 .391282 676.545 107.853)"/><rect fill="#0ead69" height="363.676" rx="43.9442" width="87.8885" x="138.429" y="320.063"/><rect fill="#0ead69" height="363.676" rx="43.9442" width="87.8885" x="708.188" y="320.063"/><path d="M449.069 109.69C460.872 92.3927 484.463 87.9387 501.76 99.7418" stroke="#000000" stroke-linecap="round" stroke-width="25.7604"/></g></svg>